<?xml version="1.0" encoding="utf-8"?>
<!-- Generator: Adobe Illustrator 23.0.0, SVG Export Plug-In . SVG Version: 6.00 Build 0)  -->
<svg version="1.1" id="レイヤー_1" xmlns="http://www.w3.org/2000/svg" xmlns:xlink="http://www.w3.org/1999/xlink" x="0px"
	 y="0px" width="128px" height="128px" viewBox="0 0 128 128" style="enable-background:new 0 0 128 128;" xml:space="preserve">
<style type="text/css">
	.st0{fill:none;}
	.st1{fill:#B3B3B3;}
</style>
<rect class="st0" width="128" height="128"/>
<g>
	<path class="st1" d="M120.6,61.4H90V13.8c0-1.3-1.1-2.4-2.4-2.4H38.8c-1.3,0-2.4,1.1-2.4,2.4v47.6H8.6c-1.3,0-2.4,1.1-2.4,2.4V116
		c0,1.3,1.1,2.4,2.4,2.4h112c1.3,0,2.4-1.1,2.4-2.4V63.8C123,62.5,121.9,61.4,120.6,61.4z M42,19.4c0-1.3,1.1-2.4,2.4-2.4h37.4
		c1.3,0,2.4,1.1,2.4,2.4v42H42V19.4z"/>
</g>
</svg>
